<svg xmlns="http://www.w3.org/2000/svg" id="Layer_1" version="1.1" viewBox="0 0 885.8 549.5"><defs><style>.st1{fill:#9f1111;fill-rule:evenodd}.st7{fill:#ff9d9d}</style></defs><path d="M217.7 246.4 145 188.6l116.5-10.9-16-26.9 42.9 13.9 6.9-57.7 60.7 43.8 34.9-118.5 73.7 90.6 59.7-64.7 7 44.8 124.4-56.7-16.9 83.6-3 109.5 54.8 132.4-121.5-18.9L596 472.4l-91.6-94.6-38.8 99.5-47.8-81.6-87.6 121.5-4-110.6-136.4 41.9 26.9-101.6 1-100.5z" style="fill:#2e52e4;fill-rule:evenodd"/><path d="m217.7 246.4 2.2-2.7-65.9-52.4 107.9-10.1c1.2-.1 2.2-.8 2.8-1.9.5-1.1.5-2.3-.1-3.4L253.4 157l34 11.1c1 .3 2.1.2 3-.4.9-.6 1.5-1.5 1.6-2.5l6.3-51.9 55.9 40.3c.9.7 2.1.8 3.2.5 1.1-.4 1.9-1.2 2.2-2.3l33-112.1 69.5 85.5c.6.8 1.6 1.3 2.6 1.3s2-.4 2.7-1.1L522.2 66l5.9 37.7c.2 1.1.8 2 1.8 2.5s2.1.6 3.1.1l118.2-53.9-15.6 76.9v.6l-3.1 109.5.3 1.4 52.4 126.7-115.3-18c-1.1-.2-2.3.2-3.1 1.1-.8.8-1.1 2-.9 3.1l24.2 107.4-83-85.7c-.8-.9-2-1.2-3.2-1-1.2.2-2.1 1-2.6 2.2l-36.2 92.8L421 394c-.6-1-1.7-1.7-2.8-1.7-1.2 0-2.3.5-3 1.4l-81.7 113.2-3.6-100.4c0-1.1-.6-2.1-1.5-2.7-.9-.6-2-.8-3-.5l-130.4 40 25.3-95.5v-.9c.1 0 1.1-100.6 1.1-100.6 0-1.1-.5-2.1-1.3-2.8l-2.2 2.7h-3.5l-1 100.1-26.8 101.1c-.3 1.2 0 2.5 1 3.4.9.9 2.2 1.2 3.4.8l132-40.5 3.8 106c0 1.5 1.1 2.8 2.5 3.2 1.4.4 3 0 3.8-1.3l84.5-117.1 45.1 77c.7 1.1 2 1.8 3.3 1.7 1.3-.1 2.5-1 3-2.2l36.9-94.5 87.8 90.7c1.1 1.1 2.8 1.4 4.2.6 1.4-.7 2.1-2.3 1.7-3.8l-25.8-114.5L690.2 375c1.2.2 2.5-.3 3.3-1.3.8-1 1-2.3.5-3.5l-54.5-131.7 3-108.5 16.9-83.3c.3-1.3-.2-2.6-1.2-3.4-1-.8-2.4-1-3.6-.4L534.3 97.7 528 57.4c-.2-1.3-1.2-2.4-2.4-2.8-1.3-.4-2.7 0-3.6 1l-57 61.8-71.1-87.5c-.8-1-2.1-1.5-3.4-1.2-1.3.3-2.3 1.2-2.7 2.4l-33.5 113.7-56.7-40.9c-1-.7-2.3-.9-3.4-.4s-1.9 1.5-2.1 2.8l-6.5 53.5-38.8-12.6c-1.4-.4-2.9 0-3.8 1.1-.9 1.1-1 2.7-.3 4l13.1 22.1-111 10.4c-1.4.1-2.6 1.1-3 2.5-.4 1.4 0 2.8 1.2 3.7l72.7 57.7 2.2-2.7h-3.5 3.5Z"/><path d="M438.3 240.4c-207.1 55.5-380.2 80.9-386.7 56.7-6.5-24.2 156.1-88.8 363.2-144.2C621.9 97.4 795 72 801.5 96.2c6.5 24.2-156.1 88.7-363.2 144.2Zm34.8 127.7c-331.3 88.8-389.7 47.2-389.7 47.2L51.8 297.2 802.7 96l31.6 118.1s-29.9 65.3-361.2 154Z" style="fill:#e03131"/><path d="m83.4 415.3 4.8-1.3-31.5-117.6-.2-.6v-.2c-.8-1.5 7.6-11.3 25.7-21 53.7-30.5 182-76.3 334-117C569.8 116.4 705 91.9 765.8 91.9c10.5 0 18.7.7 24.1 2.1 5.6 1.3 6.9 3.3 6.9 3.4a4.8 4.8 0 0 0 2.3 3.1c1.2.7 2.5.9 3.8.5l1.1-.3-1.3-4.8-4.8 1.3 31.6 118.1 4.8-1.3-4.5-2.1s-.1.4-1.4 2.1c-8.8 12-67.1 71.8-356.6 149.2C301 409 203.1 420 148.6 419.9c-25.5 0-41.4-2.4-50.8-4.7-4.7-1.2-7.7-2.3-9.5-3.1-1.8-.8-2-1.1-2-1l-2.9 4.1 4.8-1.3-4.8 1.3-2.9 4.1c1.3.9 16 10.6 68.2 10.7 55.8 0 154.4-11.2 325.7-57.1 331.7-89.1 362.9-154 364.5-156.8.5-1 .6-2.3.3-3.4L807.6 94.6c-.3-1.3-1.2-2.4-2.3-3-1.1-.7-2.5-.8-3.8-.5l-1.1.3 1.3 4.8 4.8-1.2v-.2c-1.9-6.2-7.6-8.7-14.1-10.4-6.7-1.7-15.5-2.4-26.5-2.4-63 0-198 24.7-352.2 66C312 175.2 221 204.7 155.3 230.5c-32.9 12.9-59.4 24.9-78 35.5-18.3 11-29.7 18.3-30.7 29.6 0 .9.1 1.8.4 2.7.1.4.2.8.4 1.2l4.6-1.8-4.8 1.3 31.5 117.6c.3 1.1 1 2.1 1.9 2.8l2.9-4.1Z"/><path d="M97.6 293.5s-38.7 6.3-36.3-3.3c2.4-9.6 46.1-28.9 46.1-28.9l-9.8 32.2ZM247 422.6l-48.7-177.1 33.5-4 50.7 175.3-35.5 5.8Zm107.5-59.7-56.4-49.1s12.5-17.2 29.8-17.9c17.3-.6 54.6 28.6 54.6 28.6l-28 38.4Zm158.6-136.6-93.9 24.6 6 21.4s50.6-18.5 62.6 7.9-17.7 57.8-48 51.1c4.7 17.4 12.7 34.6 12.7 34.6l-47.2 12.7L371 212.8l149.6-31.4-7.5 45Zm6.2 121.8-39.8-135.9 83.5-19.9L603.9 323l-84.6 25.1Zm142.5-44.4s-11.1-33.4-16.2-52.2c-9.7 37.4-42.2 25.4-47.4 21.3 15.6-5.3 34-33.9 31.9-46.8 12.6-8.6 3.4-37.9 3.4-37.9l-24.2 6.5-84.6 11.5 135-72 43.9 155.8-42 13.7Z" style="fill:#9f1111"/><path d="M416.6 154.9c189.2-50.7 348.8-68.4 353.5-50.9 4.7 17.5-144.9 72.8-334 123.5-189.2 50.7-346.3 77.6-351 60.1-4.7-17.5 142.4-82 331.6-132.7Z" class="st1"/><path d="m416.6 154.9 1.3 4.8c141.4-37.9 266.6-57.3 321.5-57.3 9.1 0 16.3.6 20.9 1.5 2.3.5 4 1.1 4.7 1.5.4.2.6.4.6.4l1-.9-1.2.3c0 .3.3.6.3.6l1-.9-1.2.3 1.7-.5h-1.8v.5l1.7-.5h-1.8.4l-.4-.2v.2h.4l-.4-.2c-.3 2-10.8 10-28.1 18-52.2 25.2-167.2 63.8-302.3 100-149.7 40.2-279.8 65.3-328.3 65.3-6.3 0-11.1-.4-14-1.2-1.5-.3-2.4-.8-2.8-1h-.1l-1.2.9 1.5-.4c0-.3-.2-.5-.3-.6l-1.2 1 1.5-.4-1.6.4h1.7v-.4l-1.6.4h1.7l.7-1c6.1-9 45.5-30.3 103.6-53.1 58.4-23.2 136.6-49.5 223.7-72.8l-1.3-4.8-1.3-4.8c-93.3 25-176.4 53.3-236.3 77.8-29.9 12.2-54.1 23.5-70.9 33-8.4 4.8-15 9.1-19.8 13-4.6 4.1-8 7.2-8.4 12.8 0 .7 0 1.4.3 2.1 1.6 5 5.8 6.5 9.8 7.6 4.3 1 9.7 1.4 16.4 1.5 50.9 0 180.5-25.4 330.9-65.6 93.3-25 176.9-51.1 237.4-73.3 30.2-11.1 54.7-21.2 71.7-29.8 8.5-4.3 15.2-8.2 20.1-11.9 4.6-3.8 8.3-6.7 8.7-12.5 0-.7 0-1.4-.3-2.1-2.1-5.9-7.1-7.1-12.6-8.5-5.8-1.2-13.4-1.7-22.9-1.7-56.7 0-181.9 19.6-324 57.6l1.3 4.8Z"/><path d="M414.5 169.2c-72.3 17.7-143.7 40.8-197 60.5-26.7 9.9-48.8 18.9-64.4 25.9-7.8 3.5-14 6.6-18.3 9.1-2.2 1.3-3.9 2.4-5.3 3.5-1.2 1.3-3 1.7-3.5 5.9 0 .5 0 1 .2 1.5.8 2.6 3.5 4.2 6.2 3.4 2.6-.8 4.2-3.5 3.4-6.2l-4.2 1.2h4.4c0-.4 0-.8-.2-1.2l-4.2 1.2h4.4-3.5l2.8 2.3c0-.1.6-.6.7-2.3h-3.5l2.8 2.3c0-.6 10.7-6.9 26.5-13.6 48.1-21.2 150.9-58.4 255.3-83.8 2.7-.7 4.3-3.3 3.7-6-.7-2.7-3.3-4.3-6-3.7Z" class="st7"/><path d="M444.5 265.9c13.4-3.6 27.1 4.3 30.7 17.7 3.6 13.4-4.3 27.1-17.7 30.7-13.4 3.6-27.1-4.3-30.7-17.7-3.6-13.4 4.3-27.1 17.7-30.7Z" class="st1"/><path d="m444.5 265.9 1.3 4.8c1.7-.5 3.5-.7 5.2-.7 8.8 0 17 5.9 19.4 14.9.5 1.7.7 3.5.7 5.2 0 8.8-5.9 17-14.9 19.4-1.7.5-3.5.7-5.2.7-8.8 0-17-5.9-19.4-14.9-.5-1.7-.7-3.5-.7-5.2 0-8.8 5.9-17 14.9-19.4l-1.3-4.8-1.3-4.8c-13.4 3.6-22.3 15.7-22.3 29 0 2.6.3 5.2 1 7.8 3.6 13.4 15.7 22.3 29 22.3 2.6 0 5.2-.3 7.8-1 13.4-3.6 22.3-15.7 22.3-29 0-2.6-.3-5.2-1-7.8-3.6-13.4-15.7-22.3-29-22.3-2.6 0-5.2.3-7.8 1l1.3 4.8Z"/><path d="M599.9 219.4c13.4-3.6 27.1 4.3 30.7 17.7 3.6 13.4-4.3 27.1-17.7 30.7-13.4 3.6-27.1-4.3-30.7-17.7-3.6-13.4 4.3-27.1 17.7-30.7Z" class="st1"/><path d="m599.9 219.4 1.3 4.8c1.7-.5 3.5-.7 5.2-.7 8.8 0 17 5.9 19.4 14.9.5 1.7.7 3.5.7 5.2 0 8.8-5.9 17-14.9 19.4-1.7.5-3.5.7-5.2.7-8.8 0-17-5.9-19.4-14.9-.5-1.7-.7-3.5-.7-5.2 0-8.8 5.9-17 14.9-19.4l-1.3-4.8-1.3-4.8c-13.4 3.6-22.3 15.7-22.3 29 0 2.6.3 5.2 1 7.8 3.6 13.4 15.7 22.3 29 22.3 2.6 0 5.2-.3 7.8-1 13.4-3.6 22.3-15.7 22.3-29 0-2.6-.3-5.2-1-7.8-3.6-13.4-15.7-22.3-29-22.3-2.6 0-5.2.3-7.8 1l1.3 4.8Z"/><path d="M788.1 105.9c0 3.8-9.6 13.7-29.2 24.2-19.5 10.7-48.3 23.2-85.5 37.4-2.6 1-3.9 3.9-2.9 6.4 1 2.6 3.9 3.9 6.4 2.9 37.4-14.3 66.5-26.9 86.7-38 20.1-11.4 32-20 34.3-31.5.4-2.7-1.5-5.2-4.2-5.6-2.7-.4-5.2 1.5-5.6 4.2ZM212.5 292.4c-48.4 8.3-86.5 12.2-111.6 12.2-19.4.4-31.5-3.4-31.9-5.1a4.96 4.96 0 0 0-7-.9 4.96 4.96 0 0 0-.9 7c6.8 7.5 19.4 8.6 39.7 9 26.1 0 64.5-4 113.3-12.3 2.7-.5 4.5-3 4.1-5.7-.5-2.7-3-4.5-5.7-4.1Z" class="st7"/><path d="M367.6 392.8c-2.6 10.5-7.7 18.9-15.4 25.1-4.8 3.7-10.6 6.8-17.5 9.2-6.9 2.4-15.1 4.4-24.8 5.9-18.6 3-37.2 5.8-55.9 8.3-8.1 1.1-14.4-.3-19-4.1s-8.1-10.3-10.6-19.5c-14.3-53.3-28.6-106.6-42.8-159.9-2.5-9.4-2.5-16.3 0-20.9 2.4-4.6 7.6-7.3 15.6-8.4 19.8-2.7 39.5-5.6 59.2-8.8 8.7-1.4 16.4-2.1 23.1-2 6.7.1 13 1.5 19 4.2 5.1 2.2 9.9 5.3 14.4 9.2 4.5 4 8.4 8.6 11.6 13.8 3.2 5.2 5.7 10.9 7.3 17.1 5.7 21.3.8 38.7-14.7 51.9 26.2 4.5 42.7 19.3 49.6 45.1 3.2 11.9 3.5 23.1.8 33.7Zm-70.3-118.2c-2.9-10.7-8.1-17.3-15.5-19.7-7.5-2.4-17.9-2.5-31.4-.4-10 1.6-20 3.1-30 4.5 4.9 18.3 9.8 36.7 14.7 55 11.3-1.6 22.6-3.3 33.9-5.1 9.2-1.5 16-3.7 20.5-6.6 4.5-2.9 7.2-7.4 8.4-13.6 1-4.4.8-9.2-.6-14.2Zm31.4 88.5c-2.9-10.7-8.2-17.9-15.9-21.6-7.7-3.7-18-4.4-30.9-2.4-12.8 2.1-25.6 4-38.5 5.8 5.5 20.7 11.1 41.4 16.6 62.1 13.3-1.9 26.5-3.9 39.8-6 24.9-4.1 34.5-16.9 28.9-37.9Zm203.1 15.6c-2 4-5.9 6.7-11.5 8.3-32.6 9-65.4 17.2-98.4 24.6-7.9 1.8-14.2.9-18.8-2.5-4.6-3.4-8.1-9.8-10.6-19.1-14.3-53.3-28.6-106.6-42.8-159.9-1.7-6.2-2.2-11.4-1.7-15.7.5-4.2 2.2-7.6 5-10.1s6.8-4.3 12-5.5c32.1-7.1 64-15.1 95.6-23.8 5.7-1.6 10.4-1.3 14 1 3.6 2.3 6.1 5.9 7.4 10.8 1.3 5 1 9.5-.9 13.3-2 3.8-5.8 6.6-11.5 8.1-27 7.4-54.2 14.3-81.5 20.6 4.7 17.4 9.3 34.8 14 52.2 25.2-5.8 9.9-1.3 34.8-8 5.5-1.5 10-1.2 13.5 1s5.9 5.7 7.2 10.5c1.3 4.8 1 9.2-.8 12.9-1.8 3.8-5.6 6.5-11.1 8-24.9 6.8-9.6 2.2-34.8 8 5.4 20.2 10.8 40.3 16.2 60.5 28.3-6.5 56.4-13.6 84.3-21.4 5.7-1.6 10.3-1.2 14 1.1 3.7 2.3 6.3 6.1 7.7 11.3 1.3 5 1 9.5-1 13.5Zm137.8-44.9c-2.1 4.3-6.1 7.5-11.8 9.6-28.3 10.1-56.9 19.6-85.6 28.4-7.8 2.4-13.9 2-18.5-1.2-4.5-3.1-8-9.4-10.5-18.7-14.6-54.6-29.3-109.2-43.9-163.8-2.3-8.7-2.5-15.7-.4-21 2.1-5.3 5.8-8.8 11.1-10.4 5.4-1.6 10.3-.8 14.8 2.4 4.5 3.3 7.9 9.3 10.2 18.1 13.8 51.6 27.6 103.2 41.5 154.8 24.1-7.6 48-15.6 71.8-24.1 5.7-2 10.5-1.9 14.4.4 3.9 2.3 6.6 6 8 11.1 1.4 5.2 1 10-1.1 14.3Zm60.3-220.1c-2.1 4.5-6 8-11.9 10.5-12.6 5.3-25.2 10.5-37.8 15.6l41.4 154.5c2.4 8.9 2.6 16.1.5 21.7-2.1 5.6-5.6 9.4-10.7 11.3-5.2 2-10 1.5-14.4-1.7-4.4-3.1-7.8-9.1-10.2-17.9l-41.4-154.5c-12.7 4.8-25.5 9.5-38.3 14.1-6 2.1-10.9 2.1-14.7-.1-3.8-2.2-6.4-6-7.8-11.3-1.5-5.5-1.1-10.4 1.1-14.6 2.2-4.3 6.2-7.4 12-9.4 37.3-13.3 74.3-27.7 110.9-43.2 6-2.5 10.8-2.8 14.6-.8 3.8 2 6.4 5.7 7.8 11 1.4 5.3 1.1 10.2-1 14.8Z" style="fill:#90909a"/><path d="M718 124.2c-12.6 5.3-25.2 10.5-37.8 15.6.9 3.5 1.9 6.9 2.8 10.4l-35.8 9.6c-.6-2.1-1.1-4.3-1.7-6.4-12.7 4.8-25.5 9.5-38.3 14.1-6 2.1-10.9 2.1-14.7-.1-3.8-2.2-6.4-6-7.8-11.3-1.5-5.5-1.1-10.4 1.1-14.6 2.2-4.3 6.2-7.4 12-9.4 37.3-13.3 74.3-27.7 110.9-43.2 6-2.5 10.8-2.8 14.6-.8 3.8 2 6.4 5.7 7.8 11 1.4 5.3 1.1 10.2-1 14.8-2.1 4.5-6 8-11.9 10.5Zm-215.9 74.4c-.9-3.5-1.9-7-2.8-10.4-2.3-8.7-2.5-15.7-.4-21 2.1-5.3 5.8-8.8 11.1-10.4 5.4-1.6 10.3-.8 14.8 2.4 4.5 3.3 7.9 9.3 10.2 18.1 1 3.9 2.1 7.8 3.1 11.7l-36 9.7Zm-26.7 7.2-75.6 20.3c-4 .9-7.9 1.9-11.9 2.8v.4l-36 9.7c-.8-2.9-1.6-5.9-2.4-8.8-1.7-6.2-2.2-11.4-1.7-15.7.5-4.2 2.2-7.6 5-10.1s6.8-4.3 12-5.5c32.1-7.1 64-15.1 95.6-23.8 5.7-1.6 10.4-1.3 14 1 3.6 2.3 6.1 5.9 7.4 10.8 1.3 5 1 9.5-.9 13.3-1.2 2.3-3 4.2-5.6 5.7Zm-189.7 50.8c-1.2-.7-2.5-1.3-3.9-1.7-7.5-2.4-17.9-2.5-31.4-.4-10 1.6-20 3.1-30 4.5 1.3 4.7 2.5 9.4 3.8 14.1l-35.9 9.6c-2.2-8.3-4.4-16.5-6.6-24.8-2.5-9.4-2.5-16.3 0-20.9 2.4-4.6 7.6-7.3 15.6-8.4 19.8-2.7 39.5-5.6 59.2-8.8 8.7-1.4 16.4-2.1 23.1-2 6.7.1 13 1.5 19 4.2 5.1 2.2 9.9 5.3 14.4 9.2 4.5 4 8.4 8.6 11.6 13.8.2.3.4.7.6 1l-39.4 10.6Z" style="fill:#f0f0f8;fill-rule:evenodd"/><path d="M367.6 392.8c-2.6 10.5-7.7 18.9-15.4 25.1-4.8 3.7-10.6 6.8-17.5 9.2-6.9 2.4-15.1 4.4-24.8 5.9-18.6 3-27.1 3.1-45.8 5.6-8.1 1.1-14.4-.3-19-4.1s-8.1-10.3-10.6-19.5c-14.3-53.3-28.6-106.6-42.8-159.9-5-18.6.3-19.4 17.5-21.7 19.8-2.7 33.5-4 53.2-7.2 8.7-1.4 10.3-8.6 17-8.5 6.7.1 6 3.4 12 6 5.1 2.2 9.9 5.3 14.4 9.2 4.5 4 8.4 8.6 11.6 13.8 3.2 5.2 5.7 10.9 7.3 17.1 5.7 21.3 7.9 36.8-7.6 50 26.2 4.5 42.7 19.3 49.6 45.1 3.2 11.9 3.5 23.1.8 33.7Zm-65.2-119.6c-2.9-10.7-8.1-17.3-15.5-19.7-7.5-2.4-23-1.1-36.4 1-10 1.6-20 3.1-30 4.5 4.9 18.3 9.8 36.7 14.7 55 11.3-1.6 22.6-3.3 33.9-5.1 9.2-1.5 21.1-5 25.5-7.9 4.5-2.9 7.2-7.4 8.4-13.6 1-4.4.8-9.2-.6-14.2Zm32.3 88.2c-2.9-10.7-8.2-17.9-15.9-21.6-7.7-3.7-24.1-2.8-36.9-.7-12.8 2.1-25.6 4-38.5 5.8 5.5 20.7 11.1 41.4 16.6 62.1 13.3-1.9 26.5-3.9 39.8-6 24.9-4.1 40.6-18.6 35-39.5Zm190 19.1c-2 4-5.9 6.7-11.5 8.3-32.6 9-48.3 12.6-81.3 20-7.9 1.8-14.2.9-18.8-2.5-4.6-3.4-8.1-9.8-10.6-19.1-14.3-53.3-28.6-106.6-42.8-159.9-1.7-6.2-2.2-11.4-1.7-15.7.5-4.2 2.2-7.6 5-10.1s6.8-4.3 12-5.5c32.1-7.1 53.9-12.4 85.5-21.1 5.7-1.6 10.4-1.3 14 1 3.6 2.3 6.1 5.9 7.4 10.8 1.3 5 1 9.5-.9 13.3-2 3.8-5.8 6.6-11.5 8.1-27 7.4-54.2 14.3-81.5 20.6 4.7 17.4 9.3 34.8 14 52.2 25.2-5.8-8.3 3.6 16.6-3.2 5.5-1.5 10-1.2 13.5 1s5.9 5.7 7.2 10.5c1.3 4.8 1 9.2-.8 12.9-1.8 3.8-5.6 6.5-11.1 8-24.9 6.8 8.5-2.6-16.6 3.2 5.4 20.2 10.8 40.3 16.2 60.5 28.3-6.5 49.3-11.7 77.3-19.5 5.6-1.6 10.3-1.2 14 1.1 3.7 2.3 6.3 6.1 7.7 11.3 1.3 5 1 9.5-1 13.5Zm144.9-46.7c-2.1 4.3-6.1 7.5-11.8 9.6-28.3 10.1-44.8 16.4-73.5 25.2-7.8 2.4-13.9 2-18.5-1.2-4.5-3.1-8-9.4-10.5-18.7-14.6-54.6-29.3-109.2-43.9-163.8-2.3-8.7-2.5-15.7-.4-21 2.1-5.3-6.3-5.5-1-7.1 5.4-1.6 10.3-.8 14.8 2.4 4.5 3.3 7.9 9.3 10.2 18.1 13.8 51.6 27.6 103.2 41.5 154.8 24.1-7.6 48-15.6 71.8-24.1 5.7-2 10.5-1.9 14.4.4 3.9 2.3 6.6 6 8 11.1 1.4 5.2 1 10-1.1 14.3Zm60.3-220.1c-2.1 4.5-6 8-11.9 10.5-12.6 5.3-25.2 10.5-37.8 15.6l41.4 154.5c2.4 8.9 2.6 16.1.5 21.7-2.1 5.6 4.5 6.7-.6 8.6-5.2 2-10 1.5-14.4-1.7-4.4-3.1-7.8-9.1-10.2-17.9l-41.4-154.5c-12.7 4.8-25.5 9.5-38.3 14.1-6 2.1-10.9 2.1-14.7-.1-3.8-2.2-6.4-6-7.8-11.3-1.5-5.5-1.1-10.4 1.1-14.6 2.2-4.3 6.2-7.4 12-9.4 37.3-13.3 64.2-25 100.8-40.5 6-2.5 10.8-2.8 14.6-.8 3.8 2 6.4 5.7 7.8 11 1.4 5.3 1.1 10.2-1 14.8Z" style="fill:#cbcbd3"/><path d="M249 441.7c1.6 0 3.3-.1 5.1-.4 18.7-2.5 37.3-5.3 55.9-8.3 9.6-1.6 17.9-3.6 24.8-5.9 6.9-2.4 12.7-5.4 17.5-9.2 7.6-6.2 12.7-14.6 15.4-25.1 2.6-10.6 2.4-21.8-.8-33.7-6.9-25.7-23.4-40.6-49.6-45.1 15.5-13.2 20.4-30.6 14.7-51.9-1.7-6.2-4.1-11.9-7.3-17.1-3.2-5.2-7.1-9.8-11.6-13.8s-9.3-7-14.4-9.2c-6-2.6-12.3-4-19-4.2H278c-6.3 0-13.4.7-21.4 2-19.7 3.2-39.4 6.2-59.2 8.8-7.9 1.1-13.1 3.8-15.6 8.4-2.4 4.6-2.4 11.5 0 20.9 14.3 53.3 28.6 106.6 42.8 159.9 2.5 9.2 6 15.7 10.6 19.5 3.6 2.9 8.2 4.4 13.9 4.4m45.8-103.8c7 0 12.9 1.2 17.8 3.5 7.7 3.7 13 10.9 15.9 21.6 5.6 21-4 33.8-28.9 37.9-13.2 2.1-26.5 4.2-39.8 6-5.5-20.7-11.1-41.4-16.6-62.1 12.9-1.8 25.7-3.8 38.5-5.8 4.7-.8 9-1.1 13.1-1.1M267.6 253c5.5 0 10.3.6 14.2 1.9 7.5 2.4 12.7 8.9 15.5 19.7 1.3 5 1.5 9.8.6 14.2-1.1 6.2-3.9 10.7-8.4 13.6-4.5 2.9-11.3 5.1-20.5 6.6-11.3 1.8-22.6 3.5-33.9 5.1-4.9-18.3-9.8-36.7-14.7-55 10-1.4 20-2.9 30-4.5 6.4-1 12.1-1.5 17.2-1.5m146.8 159.3c2.3 0 4.8-.3 7.5-.9 33-7.3 65.8-15.5 98.4-24.6 5.7-1.6 9.5-4.3 11.5-8.3 2-4 2.4-8.5 1-13.5-1.4-5.2-4-9-7.7-11.3-2.2-1.4-4.8-2.1-7.7-2.1s-4.1.3-6.4.9c-27.9 7.7-56 14.9-84.3 21.4-5.4-20.2-10.8-40.3-16.2-60.5 25.2-5.8 9.9-1.3 34.8-8 5.6-1.5 9.3-4.2 11.1-8 1.8-3.8 2.1-8.1.8-12.9-1.3-4.8-3.7-8.3-7.2-10.5-2.1-1.3-4.5-2-7.3-2s-4 .3-6.2.9c-24.9 6.8-9.6 2.2-34.8 8-4.7-17.4-9.3-34.8-14-52.2 27.3-6.3 54.5-13.2 81.5-20.6 5.7-1.6 9.6-4.3 11.5-8.1 2-3.8 2.3-8.3.9-13.3-1.3-4.9-3.8-8.5-7.4-10.8-2.1-1.3-4.6-2-7.4-2s-4.2.3-6.6 1c-31.7 8.7-63.5 16.7-95.6 23.8-5.2 1.1-9.2 3-12 5.5-2.8 2.5-4.5 5.9-5 10.1-.5 4.2 0 9.5 1.7 15.7 14.3 53.3 28.6 106.6 42.8 159.9 2.5 9.3 6 15.6 10.6 19.1 3 2.3 6.8 3.4 11.3 3.4m149.1-39.2c2.7 0 5.8-.5 9.1-1.5 28.7-8.8 57.3-18.3 85.6-28.4 5.8-2.1 9.7-5.3 11.8-9.6 2.1-4.3 2.5-9.1 1.1-14.3-1.4-5.1-4-8.8-8-11.1-2.1-1.2-4.4-1.8-7-1.8s-4.8.5-7.5 1.4c-23.8 8.5-47.7 16.5-71.8 24.1-13.8-51.6-27.6-103.2-41.5-154.8-2.4-8.8-5.8-14.8-10.2-18.1-3-2.2-6.2-3.3-9.5-3.3s-3.4.3-5.2.8c-5.3 1.6-9 5.1-11.1 10.4-2.1 5.3-2 12.3.4 21 14.6 54.6 29.3 109.2 43.9 163.8 2.5 9.3 6 15.5 10.5 18.7 2.6 1.8 5.7 2.7 9.4 2.7m142.4-44.7c1.9 0 3.9-.4 5.9-1.2 5.1-2 8.7-5.8 10.7-11.3 2-5.6 1.9-12.8-.5-21.7l-41.4-154.5c12.6-5.1 25.2-10.3 37.8-15.6 5.9-2.5 9.9-6 11.9-10.5 2.1-4.5 2.4-9.4 1-14.8-1.4-5.3-4-9-7.8-11-1.7-.9-3.6-1.4-5.7-1.4s-5.6.7-8.9 2.1c-36.6 15.5-73.5 29.9-110.9 43.2-5.8 2.1-9.8 5.2-12 9.4-2.2 4.3-2.6 9.1-1.1 14.6 1.4 5.3 4 9.1 7.8 11.3 1.9 1.1 4.2 1.7 6.7 1.7s5.1-.5 8-1.6c12.8-4.6 25.6-9.2 38.3-14.1l41.4 154.5c2.4 8.8 5.7 14.8 10.2 17.9 2.7 1.9 5.5 2.8 8.5 2.8M249 451.7c-8 0-14.8-2.2-20.2-6.7-6.3-5.2-10.8-13.2-13.9-24.6l-24.4-91-18.4-68.8c-3.2-12-3-21.3.8-28.2 4-7.5 11.8-12 23-13.5 19.6-2.6 39.4-5.6 58.9-8.8 8.5-1.4 16.3-2.1 23-2.1h1.9c8 .2 15.7 1.8 22.9 5 6 2.6 11.7 6.2 17 10.9 5.3 4.6 9.8 10 13.5 16 3.7 6 6.6 12.7 8.5 19.8 5 18.6 2.8 35.3-6.2 49.1 14 5.4 24.8 14.3 32.3 26.7l-4.7-17.7-22.8-85c-2-7.5-2.7-13.8-2-19.4.8-6.6 3.7-12.3 8.3-16.4 4.1-3.6 9.6-6.2 16.4-7.7 31.8-7.1 63.8-15 95.1-23.7 3.2-.9 6.3-1.3 9.2-1.3 4.7 0 9 1.2 12.7 3.5 3.1 1.9 5.7 4.5 7.7 7.5 0-4.2.8-8.1 2.2-11.6 3.2-8.1 9.2-13.8 17.4-16.3 2.7-.8 5.5-1.2 8.1-1.2 5.5 0 10.7 1.7 15.4 5.2 6.4 4.7 11 12.4 14 23.6l19.3 71.8 19.5 72.9c20.6-6.6 41.2-13.6 61.5-20.8 3.8-1.3 7.4-2 10.8-2s8.3 1.1 11.9 3.1c3.7 2.1 6.7 5 8.9 8.6l-38-141.8c-9.4 3.5-18.8 6.9-28.2 10.3-4 1.4-7.8 2.1-11.3 2.1-4.3 0-8.2-1-11.7-3.1-6.1-3.6-10.3-9.4-12.4-17.3-2.1-8-1.5-15.3 1.9-21.8s9.3-11.3 17.5-14.2c37-13.2 74.1-27.6 110.3-43 4.5-1.9 8.9-2.9 12.8-2.9s7.3.9 10.4 2.5c4.3 2.3 10 7.2 12.7 17.2 2 7.6 1.5 14.8-1.5 21.5-3.1 6.8-8.9 12.1-17.1 15.5-9.8 4.2-19.8 8.3-29.8 12.4l6.5 24.1L731.4 292c3 11 3 20.1.2 27.7-3 8.2-8.7 14.2-16.4 17.2-3.2 1.2-6.4 1.9-9.5 1.9-5 0-9.8-1.6-14.2-4.6-4.1-2.8-7.4-6.9-10-12.4.8 5.9-.1 11.5-2.7 16.7-3.3 6.7-9.2 11.6-17.4 14.6-28.3 10.1-57.3 19.7-86 28.5-4.3 1.3-8.3 2-12 2-5.7 0-10.8-1.5-15-4.5-1.7-1.2-3.3-2.6-4.7-4.2-.4 3-1.3 5.8-2.7 8.6-2.3 4.5-7.2 10.5-17.7 13.4-32.6 9-65.9 17.3-98.9 24.7-3.4.8-6.6 1.1-9.6 1.1-6.7 0-12.5-1.8-17.3-5.4-6.5-4.8-11.2-12.8-14.3-24.5l-3.5-13.1c0 5.4-.8 10.7-2.1 15.8-3.2 12.7-9.5 22.9-18.7 30.5v.1c-5.7 4.4-12.5 8-20.4 10.7-7.5 2.6-16.4 4.7-26.4 6.4-18.6 3-37.4 5.8-56.1 8.3-2.2.3-4.4.4-6.4.4Zm6.9-98.5 11.4 42.7c10.3-1.5 20.6-3.1 30.8-4.8 7.1-1.2 16.4-3.8 20.1-9.5 2.4-3.7 2.7-9.1.8-16-2.1-7.8-5.6-12.8-10.6-15.2-3.5-1.7-8.1-2.5-13.5-2.5s-7.3.3-11.5 1c-9.1 1.5-18.4 2.9-27.6 4.3Zm167-32.1 5.4 20.2 5.6 20.9c24.9-5.9 49.9-12.3 74.5-19.1 3.1-.9 6.2-1.3 9-1.3 4.8 0 9.2 1.2 13 3.6.3.2.6.4.8.6l-19.6-73.3-19.7-73.6c-.5 1.9-1.2 3.8-2.1 5.6-3.3 6.4-9.3 10.8-17.8 13.2-23.7 6.5-47.9 12.7-71.9 18.4l8.9 33.1c4.2-.9 6.1-1.2 7.6-1.5 2.6-.5 3.7-.6 17.4-4.4 3.1-.8 6-1.3 8.8-1.3 4.7 0 8.9 1.2 12.6 3.5 5.7 3.6 9.5 9.1 11.5 16.4 1.9 7.2 1.4 13.9-1.5 19.9-2.2 4.5-7 10.4-17.5 13.2-13.9 3.8-15.7 4.2-19.2 4.8-1.2.2-2.8.5-5.9 1.1Zm-190-53.8 9.5 35.6c8.3-1.2 16.7-2.5 25-3.8 9.6-1.5 14.4-3.6 16.7-5.1 1.3-.8 3.2-2.5 4-7v-.4c.6-2.9.5-6-.5-9.5-2.9-10.8-7.5-12.3-9-12.8-2.9-.9-6.6-1.4-11.2-1.4-4.5 0-9.7.5-15.6 1.4-6.3 1-12.7 2-19.1 2.9Z"/></svg>